<mxfile host="app.diagrams.net" agent="Mozilla/5.0 (Macintosh; Intel Mac OS X 10_15_7) AppleWebKit/537.36 (KHTML, like Gecko) Chrome/128.0.0.0 Safari/537.36" version="24.7.17" pages="2">
  <diagram name="Page-1" id="yqgxu_pVUWFc1bea6Q-u">
    <mxGraphModel grid="1" page="1" gridSize="10" guides="1" tooltips="1" connect="1" arrows="1" fold="1" pageScale="1" pageWidth="850" pageHeight="1100" math="0" shadow="0">
      <root>
        <mxCell id="0" />
        <mxCell id="1" parent="0" />
        <mxCell id="HeXZMOH1nJ_mKQGjhHPu-1" value="User" style="shape=umlActor;verticalLabelPosition=bottom;verticalAlign=top;html=1;outlineConnect=0;" vertex="1" parent="1">
          <mxGeometry x="160" y="285" width="30" height="60" as="geometry" />
        </mxCell>
        <mxCell id="HeXZMOH1nJ_mKQGjhHPu-2" value="login" style="ellipse;whiteSpace=wrap;html=1;" vertex="1" parent="1">
          <mxGeometry x="390" y="290" width="120" height="55" as="geometry" />
        </mxCell>
        <mxCell id="HeXZMOH1nJ_mKQGjhHPu-4" value="Profile management" style="ellipse;whiteSpace=wrap;html=1;" vertex="1" parent="1">
          <mxGeometry x="470" y="20" width="120" height="60" as="geometry" />
        </mxCell>
        <mxCell id="yDzCjR1i0tV_XkuV45wN-2" value="Guest user" style="shape=umlActor;verticalLabelPosition=bottom;verticalAlign=top;html=1;outlineConnect=0;" vertex="1" parent="1">
          <mxGeometry x="170" y="460" width="30" height="60" as="geometry" />
        </mxCell>
        <mxCell id="yDzCjR1i0tV_XkuV45wN-3" value="Admin" style="shape=umlActor;verticalLabelPosition=bottom;verticalAlign=top;html=1;outlineConnect=0;" vertex="1" parent="1">
          <mxGeometry x="1200" y="345" width="30" height="60" as="geometry" />
        </mxCell>
        <mxCell id="yDzCjR1i0tV_XkuV45wN-4" value="Sign up" style="ellipse;whiteSpace=wrap;html=1;" vertex="1" parent="1">
          <mxGeometry x="490" y="510" width="120" height="60" as="geometry" />
        </mxCell>
        <mxCell id="yDzCjR1i0tV_XkuV45wN-5" value="Contact support" style="ellipse;whiteSpace=wrap;html=1;" vertex="1" parent="1">
          <mxGeometry x="540" y="720" width="120" height="50" as="geometry" />
        </mxCell>
        <mxCell id="yDzCjR1i0tV_XkuV45wN-6" value="request pick up" style="ellipse;whiteSpace=wrap;html=1;" vertex="1" parent="1">
          <mxGeometry x="640" y="50" width="120" height="80" as="geometry" />
        </mxCell>
        <mxCell id="yDzCjR1i0tV_XkuV45wN-8" value="Track waste" style="ellipse;whiteSpace=wrap;html=1;" vertex="1" parent="1">
          <mxGeometry x="810" y="100" width="120" height="60" as="geometry" />
        </mxCell>
        <mxCell id="yDzCjR1i0tV_XkuV45wN-9" value="Earn rewards" style="ellipse;whiteSpace=wrap;html=1;" vertex="1" parent="1">
          <mxGeometry x="830" y="200" width="120" height="70" as="geometry" />
        </mxCell>
        <mxCell id="yDzCjR1i0tV_XkuV45wN-10" value="Manage users" style="ellipse;whiteSpace=wrap;html=1;" vertex="1" parent="1">
          <mxGeometry x="720" y="390" width="120" height="50" as="geometry" />
        </mxCell>
        <mxCell id="yDzCjR1i0tV_XkuV45wN-11" value="Monitors system" style="ellipse;whiteSpace=wrap;html=1;" vertex="1" parent="1">
          <mxGeometry x="750" y="530" width="120" height="40" as="geometry" />
        </mxCell>
        <mxCell id="yDzCjR1i0tV_XkuV45wN-12" value="Generate reports" style="ellipse;whiteSpace=wrap;html=1;" vertex="1" parent="1">
          <mxGeometry x="830" y="620" width="120" height="40" as="geometry" />
        </mxCell>
        <mxCell id="yDzCjR1i0tV_XkuV45wN-16" value="Staff" style="shape=umlActor;verticalLabelPosition=bottom;verticalAlign=top;html=1;outlineConnect=0;" vertex="1" parent="1">
          <mxGeometry x="1190" y="690" width="30" height="60" as="geometry" />
        </mxCell>
        <mxCell id="yDzCjR1i0tV_XkuV45wN-21" value="View schedule" style="ellipse;whiteSpace=wrap;html=1;" vertex="1" parent="1">
          <mxGeometry x="770" y="710" width="120" height="50" as="geometry" />
        </mxCell>
        <mxCell id="yDzCjR1i0tV_XkuV45wN-22" value="Update status" style="ellipse;whiteSpace=wrap;html=1;" vertex="1" parent="1">
          <mxGeometry x="740" y="830" width="120" height="40" as="geometry" />
        </mxCell>
        <mxCell id="yDzCjR1i0tV_XkuV45wN-23" value="report issues" style="ellipse;whiteSpace=wrap;html=1;" vertex="1" parent="1">
          <mxGeometry x="710" y="960" width="120" height="40" as="geometry" />
        </mxCell>
        <mxCell id="yDzCjR1i0tV_XkuV45wN-25" style="edgeStyle=orthogonalEdgeStyle;rounded=0;orthogonalLoop=1;jettySize=auto;html=1;exitX=0.5;exitY=1;exitDx=0;exitDy=0;" edge="1" parent="1" source="yDzCjR1i0tV_XkuV45wN-11" target="yDzCjR1i0tV_XkuV45wN-11">
          <mxGeometry relative="1" as="geometry" />
        </mxCell>
        <mxCell id="yDzCjR1i0tV_XkuV45wN-30" value="" style="endArrow=classic;html=1;rounded=0;exitX=0.5;exitY=0.5;exitDx=0;exitDy=0;exitPerimeter=0;" edge="1" parent="1" source="yDzCjR1i0tV_XkuV45wN-2" target="yDzCjR1i0tV_XkuV45wN-4">
          <mxGeometry width="50" height="50" relative="1" as="geometry">
            <mxPoint x="220" y="500" as="sourcePoint" />
            <mxPoint x="750" y="540" as="targetPoint" />
          </mxGeometry>
        </mxCell>
        <mxCell id="yDzCjR1i0tV_XkuV45wN-32" value="Reach out for support&amp;nbsp; or more&amp;nbsp;&lt;div&gt;information&lt;/div&gt;" style="endArrow=classic;html=1;rounded=0;exitX=0.767;exitY=0.9;exitDx=0;exitDy=0;exitPerimeter=0;" edge="1" parent="1" source="yDzCjR1i0tV_XkuV45wN-2" target="yDzCjR1i0tV_XkuV45wN-5">
          <mxGeometry width="50" height="50" relative="1" as="geometry">
            <mxPoint x="270" y="480" as="sourcePoint" />
            <mxPoint x="750" y="240" as="targetPoint" />
          </mxGeometry>
        </mxCell>
        <mxCell id="yDzCjR1i0tV_XkuV45wN-33" value="Update personal&amp;nbsp;&lt;div&gt;information&lt;/div&gt;" style="endArrow=classic;html=1;rounded=0;exitX=0;exitY=0;exitDx=0;exitDy=0;" edge="1" parent="1" source="HeXZMOH1nJ_mKQGjhHPu-2" target="HeXZMOH1nJ_mKQGjhHPu-4">
          <mxGeometry width="50" height="50" relative="1" as="geometry">
            <mxPoint x="700" y="290" as="sourcePoint" />
            <mxPoint x="750" y="240" as="targetPoint" />
          </mxGeometry>
        </mxCell>
        <mxCell id="yDzCjR1i0tV_XkuV45wN-34" value="Schedule&amp;nbsp; waste services" style="endArrow=classic;html=1;rounded=0;exitX=0.667;exitY=0.091;exitDx=0;exitDy=0;exitPerimeter=0;" edge="1" parent="1" source="HeXZMOH1nJ_mKQGjhHPu-2" target="yDzCjR1i0tV_XkuV45wN-6">
          <mxGeometry width="50" height="50" relative="1" as="geometry">
            <mxPoint x="700" y="290" as="sourcePoint" />
            <mxPoint x="750" y="240" as="targetPoint" />
          </mxGeometry>
        </mxCell>
        <mxCell id="yDzCjR1i0tV_XkuV45wN-35" value="" style="endArrow=classic;html=1;rounded=0;exitX=0.633;exitY=0.683;exitDx=0;exitDy=0;exitPerimeter=0;" edge="1" parent="1" source="HeXZMOH1nJ_mKQGjhHPu-1" target="HeXZMOH1nJ_mKQGjhHPu-2">
          <mxGeometry width="50" height="50" relative="1" as="geometry">
            <mxPoint x="700" y="290" as="sourcePoint" />
            <mxPoint x="750" y="240" as="targetPoint" />
          </mxGeometry>
        </mxCell>
        <mxCell id="yDzCjR1i0tV_XkuV45wN-36" value="Monitors the pick&amp;nbsp;&lt;div&gt;up&lt;/div&gt;" style="endArrow=classic;html=1;rounded=0;exitX=1;exitY=0;exitDx=0;exitDy=0;" edge="1" parent="1" source="HeXZMOH1nJ_mKQGjhHPu-2" target="yDzCjR1i0tV_XkuV45wN-8">
          <mxGeometry x="0.0452" y="-12" width="50" height="50" relative="1" as="geometry">
            <mxPoint x="410" y="310" as="sourcePoint" />
            <mxPoint x="460" y="260" as="targetPoint" />
            <mxPoint x="1" as="offset" />
          </mxGeometry>
        </mxCell>
        <mxCell id="yDzCjR1i0tV_XkuV45wN-39" value="Registers for new account&lt;div&gt;to access new features&lt;/div&gt;" style="endArrow=classic;html=1;rounded=0;entryX=0.5;entryY=1;entryDx=0;entryDy=0;" edge="1" parent="1" source="yDzCjR1i0tV_XkuV45wN-4" target="HeXZMOH1nJ_mKQGjhHPu-2">
          <mxGeometry width="50" height="50" relative="1" as="geometry">
            <mxPoint x="700" y="290" as="sourcePoint" />
            <mxPoint x="350" y="350" as="targetPoint" />
          </mxGeometry>
        </mxCell>
        <mxCell id="yDzCjR1i0tV_XkuV45wN-40" value="" style="endArrow=classic;html=1;rounded=0;exitX=1;exitY=0.5;exitDx=0;exitDy=0;entryX=0;entryY=1;entryDx=0;entryDy=0;" edge="1" parent="1" source="HeXZMOH1nJ_mKQGjhHPu-2" target="yDzCjR1i0tV_XkuV45wN-9">
          <mxGeometry width="50" height="50" relative="1" as="geometry">
            <mxPoint x="700" y="490" as="sourcePoint" />
            <mxPoint x="780" y="200" as="targetPoint" />
          </mxGeometry>
        </mxCell>
        <mxCell id="yDzCjR1i0tV_XkuV45wN-53" value="Participate&amp;nbsp; &amp;nbsp;in&amp;nbsp;&lt;div&gt;recycling programs&lt;/div&gt;" style="edgeLabel;html=1;align=center;verticalAlign=middle;resizable=0;points=[];" connectable="0" vertex="1" parent="yDzCjR1i0tV_XkuV45wN-40">
          <mxGeometry x="-0.6696" y="-2" relative="1" as="geometry">
            <mxPoint as="offset" />
          </mxGeometry>
        </mxCell>
        <mxCell id="yDzCjR1i0tV_XkuV45wN-42" value="" style="endArrow=classic;html=1;rounded=0;exitX=0.5;exitY=0;exitDx=0;exitDy=0;exitPerimeter=0;entryX=0.8;entryY=0.927;entryDx=0;entryDy=0;entryPerimeter=0;" edge="1" parent="1" source="yDzCjR1i0tV_XkuV45wN-3" target="HeXZMOH1nJ_mKQGjhHPu-2">
          <mxGeometry width="50" height="50" relative="1" as="geometry">
            <mxPoint x="700" y="490" as="sourcePoint" />
            <mxPoint x="750" y="440" as="targetPoint" />
          </mxGeometry>
        </mxCell>
        <mxCell id="yDzCjR1i0tV_XkuV45wN-43" value="Add ,&amp;nbsp; update ,delete&amp;nbsp;&lt;div&gt;account&lt;/div&gt;" style="endArrow=classic;html=1;rounded=0;exitX=1;exitY=0.3333333333333333;exitDx=0;exitDy=0;exitPerimeter=0;" edge="1" parent="1" source="yDzCjR1i0tV_XkuV45wN-3" target="yDzCjR1i0tV_XkuV45wN-10">
          <mxGeometry width="50" height="50" relative="1" as="geometry">
            <mxPoint x="700" y="490" as="sourcePoint" />
            <mxPoint x="750" y="440" as="targetPoint" />
          </mxGeometry>
        </mxCell>
        <mxCell id="yDzCjR1i0tV_XkuV45wN-44" value="" style="endArrow=classic;html=1;rounded=0;entryX=0.6;entryY=0;entryDx=0;entryDy=0;entryPerimeter=0;exitX=0.5;exitY=0.5;exitDx=0;exitDy=0;exitPerimeter=0;" edge="1" parent="1" source="yDzCjR1i0tV_XkuV45wN-3" target="yDzCjR1i0tV_XkuV45wN-11">
          <mxGeometry width="50" height="50" relative="1" as="geometry">
            <mxPoint x="700" y="490" as="sourcePoint" />
            <mxPoint x="750" y="440" as="targetPoint" />
          </mxGeometry>
        </mxCell>
        <mxCell id="yDzCjR1i0tV_XkuV45wN-54" value="Over see system&amp;nbsp;&lt;div&gt;performance , manage data&lt;/div&gt;" style="edgeLabel;html=1;align=center;verticalAlign=middle;resizable=0;points=[];" connectable="0" vertex="1" parent="yDzCjR1i0tV_XkuV45wN-44">
          <mxGeometry x="0.6036" relative="1" as="geometry">
            <mxPoint as="offset" />
          </mxGeometry>
        </mxCell>
        <mxCell id="yDzCjR1i0tV_XkuV45wN-45" value="Creates reports&amp;nbsp;&lt;div&gt;on waste collection&lt;/div&gt;" style="endArrow=classic;html=1;rounded=0;exitX=0;exitY=1;exitDx=0;exitDy=0;exitPerimeter=0;" edge="1" parent="1" source="yDzCjR1i0tV_XkuV45wN-3" target="yDzCjR1i0tV_XkuV45wN-12">
          <mxGeometry width="50" height="50" relative="1" as="geometry">
            <mxPoint x="700" y="490" as="sourcePoint" />
            <mxPoint x="750" y="440" as="targetPoint" />
          </mxGeometry>
        </mxCell>
        <mxCell id="yDzCjR1i0tV_XkuV45wN-46" value="Access daily pick up&lt;div&gt;routes&lt;/div&gt;" style="endArrow=classic;html=1;rounded=0;exitX=0.5;exitY=0;exitDx=0;exitDy=0;exitPerimeter=0;" edge="1" parent="1" source="yDzCjR1i0tV_XkuV45wN-16" target="yDzCjR1i0tV_XkuV45wN-21">
          <mxGeometry width="50" height="50" relative="1" as="geometry">
            <mxPoint x="1290" y="460" as="sourcePoint" />
            <mxPoint x="1100" y="630" as="targetPoint" />
          </mxGeometry>
        </mxCell>
        <mxCell id="yDzCjR1i0tV_XkuV45wN-47" value="Make up pick up as&amp;nbsp;&lt;div&gt;completed&lt;/div&gt;" style="endArrow=classic;html=1;rounded=0;exitX=0.5;exitY=0.5;exitDx=0;exitDy=0;exitPerimeter=0;" edge="1" parent="1" source="yDzCjR1i0tV_XkuV45wN-16" target="yDzCjR1i0tV_XkuV45wN-22">
          <mxGeometry width="50" height="50" relative="1" as="geometry">
            <mxPoint x="700" y="690" as="sourcePoint" />
            <mxPoint x="750" y="640" as="targetPoint" />
          </mxGeometry>
        </mxCell>
        <mxCell id="yDzCjR1i0tV_XkuV45wN-48" value="Notify the admin&amp;nbsp;&lt;div&gt;any problem&amp;nbsp;&lt;/div&gt;&lt;div&gt;during pick ups&amp;nbsp;&lt;/div&gt;" style="endArrow=classic;html=1;rounded=0;exitX=1;exitY=1;exitDx=0;exitDy=0;exitPerimeter=0;" edge="1" parent="1" source="yDzCjR1i0tV_XkuV45wN-16" target="yDzCjR1i0tV_XkuV45wN-23">
          <mxGeometry width="50" height="50" relative="1" as="geometry">
            <mxPoint x="700" y="690" as="sourcePoint" />
            <mxPoint x="750" y="640" as="targetPoint" />
          </mxGeometry>
        </mxCell>
        <mxCell id="yDzCjR1i0tV_XkuV45wN-60" value="frame" style="shape=umlFrame;whiteSpace=wrap;html=1;pointerEvents=0;" vertex="1" parent="1">
          <mxGeometry x="270" y="-60" width="840" height="1110" as="geometry" />
        </mxCell>
      </root>
    </mxGraphModel>
  </diagram>
  <diagram id="PWtjcU2erARN--JnFSJG" name="Page-2">
    <mxGraphModel grid="1" page="1" gridSize="10" guides="1" tooltips="1" connect="1" arrows="1" fold="1" pageScale="1" pageWidth="850" pageHeight="1100" math="0" shadow="0">
      <root>
        <mxCell id="0" />
        <mxCell id="1" parent="0" />
        <mxCell id="7_nCHV_kM9gVqLO-VquO-1" value="sequence diagram" style="shape=note;whiteSpace=wrap;html=1;backgroundOutline=1;fontColor=#000000;darkOpacity=0.05;fillColor=#FFF9B2;strokeColor=none;fillStyle=solid;direction=west;gradientDirection=north;gradientColor=#FFF2A1;shadow=1;size=20;pointerEvents=1;" vertex="1" parent="1">
          <mxGeometry x="90" y="20" width="140" height="160" as="geometry" />
        </mxCell>
        <mxCell id="7_nCHV_kM9gVqLO-VquO-2" style="edgeStyle=orthogonalEdgeStyle;rounded=0;orthogonalLoop=1;jettySize=auto;html=1;exitX=0.5;exitY=0;exitDx=0;exitDy=0;exitPerimeter=0;" edge="1" parent="1" source="7_nCHV_kM9gVqLO-VquO-1" target="7_nCHV_kM9gVqLO-VquO-1">
          <mxGeometry relative="1" as="geometry" />
        </mxCell>
        <mxCell id="PKiieN1I35BF59sLnJzJ-1" value="User" style="rounded=0;whiteSpace=wrap;html=1;" vertex="1" parent="1">
          <mxGeometry x="50" y="370" width="120" height="50" as="geometry" />
        </mxCell>
        <mxCell id="PKiieN1I35BF59sLnJzJ-2" value="System" style="rounded=0;whiteSpace=wrap;html=1;" vertex="1" parent="1">
          <mxGeometry x="260" y="370" width="120" height="50" as="geometry" />
        </mxCell>
        <mxCell id="PKiieN1I35BF59sLnJzJ-5" style="edgeStyle=orthogonalEdgeStyle;rounded=0;orthogonalLoop=1;jettySize=auto;html=1;exitX=0.5;exitY=1;exitDx=0;exitDy=0;" edge="1" parent="1" source="PKiieN1I35BF59sLnJzJ-3">
          <mxGeometry relative="1" as="geometry">
            <mxPoint x="560" y="430" as="targetPoint" />
            <Array as="points">
              <mxPoint x="560" y="425" />
            </Array>
          </mxGeometry>
        </mxCell>
        <mxCell id="PKiieN1I35BF59sLnJzJ-3" value="Database" style="rounded=0;whiteSpace=wrap;html=1;" vertex="1" parent="1">
          <mxGeometry x="490" y="365" width="120" height="60" as="geometry" />
        </mxCell>
        <mxCell id="PKiieN1I35BF59sLnJzJ-4" value="Waste service" style="rounded=0;whiteSpace=wrap;html=1;" vertex="1" parent="1">
          <mxGeometry x="690" y="370" width="120" height="55" as="geometry" />
        </mxCell>
        <mxCell id="PKiieN1I35BF59sLnJzJ-6" value="" style="html=1;points=[[0,0,0,0,5],[0,1,0,0,-5],[1,0,0,0,5],[1,1,0,0,-5]];perimeter=orthogonalPerimeter;outlineConnect=0;targetShapes=umlLifeline;portConstraint=eastwest;newEdgeStyle={&quot;curved&quot;:0,&quot;rounded&quot;:0};" vertex="1" parent="1">
          <mxGeometry x="105" y="510" width="10" height="540" as="geometry" />
        </mxCell>
        <mxCell id="PKiieN1I35BF59sLnJzJ-7" value="" style="endArrow=none;html=1;rounded=0;" edge="1" parent="1" source="PKiieN1I35BF59sLnJzJ-6" target="PKiieN1I35BF59sLnJzJ-1">
          <mxGeometry width="50" height="50" relative="1" as="geometry">
            <mxPoint x="210" y="630" as="sourcePoint" />
            <mxPoint x="220" y="500" as="targetPoint" />
          </mxGeometry>
        </mxCell>
        <mxCell id="PKiieN1I35BF59sLnJzJ-10" value="Login" style="endArrow=classic;html=1;rounded=0;" edge="1" parent="1">
          <mxGeometry width="50" height="50" relative="1" as="geometry">
            <mxPoint x="110" y="460" as="sourcePoint" />
            <mxPoint x="300" y="460" as="targetPoint" />
          </mxGeometry>
        </mxCell>
        <mxCell id="PKiieN1I35BF59sLnJzJ-16" value="" style="endArrow=none;html=1;rounded=0;" edge="1" parent="1">
          <mxGeometry width="50" height="50" relative="1" as="geometry">
            <mxPoint x="290" y="500" as="sourcePoint" />
            <mxPoint x="290" y="420" as="targetPoint" />
          </mxGeometry>
        </mxCell>
        <mxCell id="fwD1P0dQXngH8_zoePjx-1" value="Verify credentials" style="endArrow=classic;html=1;rounded=0;" edge="1" parent="1">
          <mxGeometry width="50" height="50" relative="1" as="geometry">
            <mxPoint x="310" y="480" as="sourcePoint" />
            <mxPoint x="540" y="480" as="targetPoint" />
          </mxGeometry>
        </mxCell>
        <mxCell id="fwD1P0dQXngH8_zoePjx-2" value="" style="endArrow=none;html=1;rounded=0;entryX=0.425;entryY=0.967;entryDx=0;entryDy=0;entryPerimeter=0;" edge="1" parent="1" target="PKiieN1I35BF59sLnJzJ-3">
          <mxGeometry width="50" height="50" relative="1" as="geometry">
            <mxPoint x="540" y="499" as="sourcePoint" />
            <mxPoint x="450" y="400" as="targetPoint" />
          </mxGeometry>
        </mxCell>
        <mxCell id="sHzzX4Ur3Gv-GkxNIC-D-14" value="" style="endArrow=none;dashed=1;html=1;rounded=0;" edge="1" parent="1">
          <mxGeometry width="50" height="50" relative="1" as="geometry">
            <mxPoint y="1000" as="sourcePoint" />
            <mxPoint x="850" y="1000" as="targetPoint" />
          </mxGeometry>
        </mxCell>
        <mxCell id="sHzzX4Ur3Gv-GkxNIC-D-16" value="Access denied" style="html=1;labelBackgroundColor=#ffffff;startArrow=none;startFill=0;startSize=6;endArrow=classic;endFill=1;endSize=6;jettySize=auto;orthogonalLoop=1;strokeWidth=1;dashed=1;fontSize=14;rounded=0;" edge="1" parent="1">
          <mxGeometry width="60" height="60" relative="1" as="geometry">
            <mxPoint x="260" y="1060" as="sourcePoint" />
            <mxPoint x="40" y="1060" as="targetPoint" />
          </mxGeometry>
        </mxCell>
        <mxCell id="sHzzX4Ur3Gv-GkxNIC-D-17" value="Invalid credentials" style="html=1;labelBackgroundColor=#ffffff;startArrow=none;startFill=0;startSize=6;endArrow=classic;endFill=1;endSize=6;jettySize=auto;orthogonalLoop=1;strokeWidth=1;dashed=1;fontSize=14;rounded=0;" edge="1" parent="1">
          <mxGeometry width="60" height="60" relative="1" as="geometry">
            <mxPoint x="500" y="1030" as="sourcePoint" />
            <mxPoint x="320" y="1030" as="targetPoint" />
          </mxGeometry>
        </mxCell>
        <mxCell id="sHzzX4Ur3Gv-GkxNIC-D-18" value="" style="swimlane;horizontal=0;whiteSpace=wrap;html=1;" vertex="1" parent="1">
          <mxGeometry x="20" y="850" width="320" height="130" as="geometry" />
        </mxCell>
        <mxCell id="sHzzX4Ur3Gv-GkxNIC-D-20" value="" style="html=1;points=[[0,0,0,0,5],[0,1,0,0,-5],[1,0,0,0,5],[1,1,0,0,-5]];perimeter=orthogonalPerimeter;outlineConnect=0;targetShapes=umlLifeline;portConstraint=eastwest;newEdgeStyle={&quot;curved&quot;:0,&quot;rounded&quot;:0};" vertex="1" parent="1">
          <mxGeometry x="290" y="500" width="10" height="350" as="geometry" />
        </mxCell>
        <mxCell id="sHzzX4Ur3Gv-GkxNIC-D-24" value="Schedule pickup&amp;nbsp; &amp;nbsp;" style="endArrow=classic;html=1;rounded=0;" edge="1" parent="1" source="sHzzX4Ur3Gv-GkxNIC-D-20">
          <mxGeometry width="50" height="50" relative="1" as="geometry">
            <mxPoint x="320" y="710" as="sourcePoint" />
            <mxPoint x="850" y="660" as="targetPoint" />
          </mxGeometry>
        </mxCell>
        <mxCell id="sHzzX4Ur3Gv-GkxNIC-D-25" value="" style="endArrow=classic;html=1;rounded=0;" edge="1" parent="1" target="sHzzX4Ur3Gv-GkxNIC-D-20">
          <mxGeometry width="50" height="50" relative="1" as="geometry">
            <mxPoint x="840" y="790" as="sourcePoint" />
            <mxPoint x="350" y="710" as="targetPoint" />
          </mxGeometry>
        </mxCell>
        <mxCell id="sHzzX4Ur3Gv-GkxNIC-D-27" value="" style="swimlane;startSize=0;" vertex="1" parent="1">
          <mxGeometry y="470" width="880" height="600" as="geometry" />
        </mxCell>
        <mxCell id="sHzzX4Ur3Gv-GkxNIC-D-34" value="" style="endArrow=classic;html=1;rounded=0;" edge="1" parent="sHzzX4Ur3Gv-GkxNIC-D-27">
          <mxGeometry width="50" height="50" relative="1" as="geometry">
            <mxPoint x="340" y="410" as="sourcePoint" />
            <mxPoint x="50" y="410" as="targetPoint" />
          </mxGeometry>
        </mxCell>
        <mxCell id="sHzzX4Ur3Gv-GkxNIC-D-38" value="" style="rounded=1;whiteSpace=wrap;html=1;" vertex="1" parent="sHzzX4Ur3Gv-GkxNIC-D-27">
          <mxGeometry x="80" y="420" width="230" height="60" as="geometry" />
        </mxCell>
        <mxCell id="sHzzX4Ur3Gv-GkxNIC-D-39" value="Track waste" style="endArrow=classic;html=1;rounded=0;exitX=1;exitY=0.5;exitDx=0;exitDy=0;" edge="1" parent="sHzzX4Ur3Gv-GkxNIC-D-27" source="sHzzX4Ur3Gv-GkxNIC-D-38">
          <mxGeometry width="50" height="50" relative="1" as="geometry">
            <mxPoint x="430" y="400" as="sourcePoint" />
            <mxPoint x="90" y="450" as="targetPoint" />
          </mxGeometry>
        </mxCell>
        <mxCell id="sHzzX4Ur3Gv-GkxNIC-D-41" value="Waste pick up" style="endArrow=classic;html=1;rounded=0;" edge="1" parent="1" source="PKiieN1I35BF59sLnJzJ-6" target="sHzzX4Ur3Gv-GkxNIC-D-20">
          <mxGeometry width="50" height="50" relative="1" as="geometry">
            <mxPoint x="150" y="570" as="sourcePoint" />
            <mxPoint x="265" y="570" as="targetPoint" />
          </mxGeometry>
        </mxCell>
        <mxCell id="sHzzX4Ur3Gv-GkxNIC-D-42" value="Success" style="text;html=1;align=center;verticalAlign=middle;resizable=0;points=[];autosize=1;strokeColor=none;fillColor=none;" vertex="1" parent="1">
          <mxGeometry x="-5" y="498" width="70" height="30" as="geometry" />
        </mxCell>
      </root>
    </mxGraphModel>
  </diagram>
</mxfile>
